<?xml version="1.0" standalone="no"?>
<!DOCTYPE svg PUBLIC "-//W3C//DTD SVG 20010904//EN"
 "http://www.w3.org/TR/2001/REC-SVG-20010904/DTD/svg10.dtd">
<svg version="1.0" xmlns="http://www.w3.org/2000/svg"
 width="260.000000pt" height="260.000000pt" viewBox="0 0 260.000000 260.000000"
 preserveAspectRatio="xMidYMid meet">
<metadata>
Created by potrace 1.11, written by Peter Selinger 2001-2013
</metadata>
<g transform="translate(0.000000,260.000000) scale(0.100000,-0.100000)"
fill="#000000" stroke="none">
<path d="M652 1996 c-41 -22 -62 -66 -62 -128 l0 -58 -237 0 c-218 0 -240 -2
-267 -19 -56 -37 -55 -32 -56 -489 0 -422 2 -445 34 -478 31 -31 59 -34 290
-34 l236 0 0 -56 c0 -71 17 -106 67 -132 16 -9 192 -12 645 -12 599 0 624 1
652 19 42 28 55 58 56 124 l0 57 238 0 c257 1 268 3 303 56 18 27 19 51 19
452 0 422 -2 445 -34 478 -31 31 -59 34 -290 34 l-236 0 0 56 c0 71 -17 106
-67 132 -33 18 -1259 16 -1291 -2z"/>
</g>
</svg>
